<?xml version="1.0" encoding="utf-8"?>
<!-- Generator: Adobe Illustrator 26.2.1, SVG Export Plug-In . SVG Version: 6.00 Build 0)  -->
<svg version="1.1" id="레이어_1" xmlns="http://www.w3.org/2000/svg" xmlns:xlink="http://www.w3.org/1999/xlink" x="0px"
	 y="0px" viewBox="0 0 40 40" style="enable-background:new 0 0 40 40;" xml:space="preserve">
<style type="text/css">
	.st0{fill:#FFFFFF;}
</style>
<g>
	<circle class="st0" cx="20" cy="20" r="13.7"/>
	<path d="M20.1,29.7c0.6,0,1-0.2,1.4-0.5c0.3-0.3,0.5-0.8,0.5-1.4V22h5.9c0.5,0,0.9-0.2,1.3-0.5c0.4-0.4,0.5-0.8,0.5-1.4
		c0-0.5-0.2-1-0.5-1.3c-0.3-0.4-0.8-0.5-1.4-0.5h-5.8v-6.1c0-0.5-0.2-0.9-0.5-1.3s-0.8-0.5-1.3-0.5c-0.6,0-1,0.2-1.4,0.5
		c-0.4,0.3-0.5,0.8-0.5,1.4v6h-6c-0.5,0-1,0.2-1.3,0.6c-0.4,0.4-0.5,0.8-0.5,1.3c0,0.6,0.2,1.1,0.5,1.4c0.3,0.3,0.8,0.5,1.4,0.5h5.9
		v5.8c0,0.5,0.2,1,0.6,1.3C19.1,29.5,19.5,29.7,20.1,29.7z M20,40c-2.8,0-5.4-0.5-7.8-1.5c-2.5-1-4.6-2.4-6.4-4.2
		c-1.8-1.8-3.2-3.9-4.2-6.4C0.5,25.4,0,22.8,0,20c0-2.8,0.5-5.4,1.5-7.8s2.4-4.6,4.2-6.4C7.5,4,9.7,2.6,12.1,1.6
		C14.6,0.5,17.2,0,20,0c2.8,0,5.4,0.5,7.9,1.5c2.5,1,4.6,2.4,6.4,4.2s3.2,3.9,4.2,6.4c1,2.5,1.5,5.1,1.5,7.9s-0.5,5.4-1.6,7.9
		c-1,2.5-2.5,4.6-4.3,6.4c-1.8,1.8-3.9,3.2-6.4,4.2C25.4,39.5,22.8,40,20,40z"/>
</g>
</svg>
