<svg width="130" height="127" viewBox="0 0 130 127" fill="none" xmlns="http://www.w3.org/2000/svg">
<path d="M106.979 0H23.0208C10.3068 0 0 10.3271 0 23.0662V103.934C0 116.673 10.3068 127 23.0208 127H106.979C119.693 127 130 116.673 130 103.934V23.0662C130 10.3271 119.693 0 106.979 0Z" fill="#00005B"/>
<path d="M52.2248 75.983H32.0795L27.9807 88.7649C27.9249 88.9976 27.7899 89.2034 27.5988 89.347C27.4078 89.4906 27.1727 89.5628 26.9342 89.5513H16.7308C16.149 89.5513 15.9455 89.231 16.1204 88.5902L33.5622 38.4671C33.7365 37.9429 33.911 37.4304 34.0853 36.7599C34.3137 35.5942 34.4305 34.4092 34.4341 33.2212C34.4223 33.1381 34.43 33.0534 34.4565 32.9738C34.483 32.8942 34.5276 32.8218 34.5868 32.7625C34.6461 32.7031 34.7182 32.6584 34.7977 32.6318C34.8771 32.6053 34.9617 32.5976 35.0446 32.6094H48.9108C49.3168 32.6094 49.5494 32.7551 49.6085 33.0464L69.4048 88.6775C69.579 89.2605 69.4047 89.5518 68.8816 89.5513H57.5444C57.3497 89.573 57.1538 89.5229 56.9933 89.4103C56.8328 89.2977 56.7187 89.1304 56.6724 88.9397L52.2248 75.983ZM35.2192 65.2055H48.9981C48.6492 64.0409 48.2422 62.7302 47.777 61.2733C47.3109 59.8179 46.8168 58.2596 46.2945 56.5985C45.7714 54.9383 45.2481 53.2781 44.7248 51.6178C44.2016 49.9577 43.7219 48.3557 43.2857 46.8119C42.8498 45.2691 42.4574 43.8565 42.1085 42.574H42.0212C41.5305 44.934 40.9193 47.2672 40.1899 49.5644C39.375 52.1858 38.5466 54.8655 37.7045 57.6034C36.8611 60.3422 36.0326 62.8763 35.2192 65.2055Z" fill="#9999FF"/>
<path d="M101.498 71.0078H84.318C84.5284 72.711 85.0929 74.3511 85.975 75.8222C86.9503 77.2788 88.3295 78.4179 89.9428 79.0988C92.1293 80.0469 94.4942 80.5113 96.8761 80.4604C98.7658 80.4241 100.648 80.217 102.501 79.8417C104.158 79.6175 105.782 79.1934 107.337 78.5785C107.627 78.3465 107.773 78.4912 107.773 79.0155V87.3166C107.788 87.5427 107.742 87.7687 107.642 87.9719C107.542 88.1308 107.408 88.2651 107.25 88.3651C105.525 89.1307 103.709 89.6727 101.847 89.9778C99.3171 90.4539 96.7461 90.6734 94.1725 90.6331C90.0436 90.6331 86.5843 89.9924 83.7946 88.7108C81.1574 87.5467 78.8281 85.7813 76.9925 83.5553C75.2779 81.4579 74.0025 79.0359 73.2424 76.4338C72.4898 73.8655 72.1081 71.2025 72.1088 68.5258C72.1008 65.6032 72.5571 62.6979 73.4606 59.9189C74.3307 57.2082 75.7068 54.6877 77.5157 52.4916C79.2999 50.3211 81.531 48.5625 84.0565 47.3361C86.614 46.0841 89.6376 45.635 93.1259 45.635C96.0189 45.5617 98.8923 46.1285 101.542 47.2951C103.769 48.2471 105.73 49.7312 107.254 51.6177C108.682 53.4651 109.775 55.5505 110.48 57.7781C111.168 59.9248 111.521 62.1647 111.527 64.419C111.527 65.701 111.483 66.8661 111.396 67.9142C111.309 68.9627 111.236 69.72 111.178 70.1861C111.155 70.3788 111.063 70.5564 110.918 70.6852C110.774 70.8141 110.587 70.8853 110.393 70.8852C110.044 70.8852 109.448 70.9289 108.605 71.0162C107.762 71.1036 106.716 71.1618 105.466 71.191C104.215 71.221 102.893 71.0078 101.498 71.0078ZM84.318 63.0477H95.7422C97.1376 63.0477 98.1696 63.0331 98.838 63.004C99.2854 62.9592 99.7173 62.8158 100.103 62.584V62.0597C100.085 61.3763 99.9677 60.6992 99.754 60.05C99.2834 58.5592 98.3374 57.2645 97.0613 56.3647C95.7851 55.4649 94.2494 55.0098 92.6901 55.0693C91.2224 54.9804 89.7607 55.3214 88.4832 56.0506C87.2056 56.7799 86.1674 57.8658 85.4953 59.1761C84.8979 60.3949 84.5003 61.7022 84.318 63.0477Z" fill="#9999FF"/>
</svg>
