<svg width="131" height="126" viewBox="0 0 131 126" fill="none" xmlns="http://www.w3.org/2000/svg">
<path d="M107.802 0H23.1979C10.3861 0 0 10.2458 0 22.8846V103.115C0 115.754 10.3861 126 23.1979 126H107.802C120.614 126 131 115.754 131 103.115V22.8846C131 10.2458 120.614 0 107.802 0Z" fill="#330000"/>
<path d="M63.4806 75.6152H43.1806L39.0503 88.2723C38.994 88.5031 38.8579 88.7073 38.6654 88.8497C38.4729 88.9922 38.236 89.0639 37.9957 89.0526H27.7139C27.1275 89.0526 26.9225 88.7347 27.0987 88.0989L44.6744 38.1641C44.8503 37.6441 45.0261 37.0517 45.2018 36.3869C45.4317 35.2303 45.5494 34.0546 45.5534 32.876C45.5414 32.7936 45.5491 32.7095 45.5758 32.6305C45.6025 32.5515 45.6475 32.4797 45.7072 32.4209C45.7668 32.362 45.8396 32.3176 45.9197 32.2912C45.9998 32.2649 46.0849 32.2573 46.1685 32.269H60.1411C60.5505 32.269 60.7848 32.4136 60.8442 32.7026L80.7929 88.1856C80.9686 88.764 80.7928 89.053 80.2655 89.0525H68.8411C68.6449 89.074 68.4475 89.0242 68.2858 88.9125C68.1241 88.8009 68.0091 88.6349 67.9624 88.4457L63.4806 75.6152ZM46.3442 64.692H60.2291C59.8775 63.5366 59.4674 62.2362 58.9988 60.7908C58.5292 59.3468 58.0312 57.8008 57.505 56.1528C56.9775 54.5057 56.4502 52.8585 55.9229 51.2113C55.3957 49.5642 54.9124 47.9749 54.473 46.4432C54.0335 44.9126 53.6381 43.5111 53.2867 42.2387H53.1988C52.7041 44.58 52.0881 46.8949 51.3534 49.174C50.5323 51.7749 49.6973 54.4334 48.8486 57.1497C47.9987 59.867 47.1639 62.3811 46.3441 64.692H46.3442Z" fill="#FF9A00"/>
<path d="M92.6555 41.4586C91.7592 41.4941 90.8654 41.3426 90.0325 41.0139C89.1996 40.6852 88.4464 40.1869 87.8221 39.5513C87.1996 38.8883 86.7161 38.1104 86.3994 37.2623C86.0826 36.4143 85.9389 35.5129 85.9765 34.6099C85.9446 33.7158 86.1042 32.8252 86.4449 31.9961C86.7856 31.167 87.2998 30.4182 87.9538 29.7984C88.6015 29.1851 89.3661 28.7046 90.2033 28.3847C91.0404 28.0648 91.9336 27.9118 92.8311 27.9346C94.9404 27.9346 96.5955 28.5559 97.7964 29.7984C98.4026 30.4442 98.8738 31.2016 99.1829 32.0272C99.492 32.8528 99.633 33.7304 99.5978 34.6099C99.6346 35.5164 99.4862 36.421 99.1617 37.2698C98.8371 38.1187 98.3429 38.8946 97.7084 39.5513C97.0453 40.1962 96.254 40.6986 95.3844 41.0268C94.5147 41.3551 93.5856 41.5021 92.6555 41.4586ZM86.5916 88.1856V46.7467C86.5916 46.2267 86.8251 45.9665 87.2947 45.9665H98.104C98.5722 45.9665 98.8066 46.2266 98.8071 46.7467V88.1856C98.8071 88.7641 98.5727 89.0531 98.104 89.0526H87.3827C86.8555 89.0526 86.5918 88.7636 86.5916 88.1856Z" fill="#FF9A00"/>
</svg>
