<svg width="91" height="106" viewBox="0 0 91 106" fill="none" xmlns="http://www.w3.org/2000/svg">
<path d="M84 10.5852H6.5L15 86.5852L46 95.5852L73 86.5852L84 10.5852Z" fill="white"/>
<path d="M0.5 0.585205L8.67969 93.2002L45.5 105.415L82.3203 93.2002L90.5 0.585205H0.5ZM73.8828 19.3048L72.7578 30.3727L45.7344 41.9086L45.6641 41.932H71.7969L68.7969 76.2356L45.7812 82.9513L22.625 76.1186L21.125 58.8264H32.5859L33.3359 67.7884L45.6641 70.9006L58.4844 67.297L59.3516 52.883L20.375 52.766V52.7426L20.3281 52.766L19.4844 41.932L45.7578 31.0045L47.2813 30.3727H18.4766L17.1172 19.3048H73.8828Z" fill="#2865F1"/>
</svg>
