<svg width="176" height="176" viewBox="0 0 176 176" fill="none" xmlns="http://www.w3.org/2000/svg">
<g clip-path="url(#clip0_52_66)">
<path fill-rule="evenodd" clip-rule="evenodd" d="M0.181366 90.2198C0.181366 129.853 25.2504 163.483 60.0205 175.346C64.3983 176.172 65.9937 173.402 65.9937 171.023C65.9937 168.891 65.9185 163.251 65.8755 155.767C41.537 161.186 36.4018 143.738 36.4018 143.738C32.4215 133.372 26.6846 130.613 26.6846 130.613C18.7401 125.045 27.2863 125.16 27.2863 125.16C36.0687 125.794 40.6883 134.408 40.6883 134.408C48.4985 148.116 61.17 144.156 66.1548 141.86C66.9498 136.06 69.2113 132.111 71.709 129.864C52.2801 127.6 31.8521 119.906 31.8521 85.5273C31.8521 75.7292 35.263 67.721 40.8602 61.4478C39.9631 59.1786 36.9604 50.0579 41.7196 37.7098C41.7196 37.7098 49.0679 35.2919 65.7788 46.9021C72.7619 44.9138 80.2444 43.9169 87.684 43.8839C95.1183 43.9169 102.601 44.9138 109.595 46.9021C126.295 35.2919 133.632 37.7098 133.632 37.7098C138.402 50.0579 135.4 59.1786 134.503 61.4478C140.11 67.721 143.495 75.7292 143.495 85.5273C143.495 119.989 123.04 127.573 103.546 129.798C106.689 132.568 109.482 138.043 109.482 146.409C109.482 158.405 109.38 168.082 109.38 171.023C109.38 173.424 110.954 176.211 115.396 175.335C150.134 163.45 175.181 129.847 175.181 90.2198C175.181 40.6674 136.001 0.5 87.6733 0.5C39.3615 0.5 0.181366 40.6674 0.181366 90.2198Z" fill="black"/>
</g>
<defs>
<clipPath id="clip0_52_66">
<rect width="175" height="175" fill="white" transform="translate(0.181366 0.5)"/>
</clipPath>
</defs>
</svg>
