<svg width="110" height="530" viewBox="0 0 110 530" fill="none" xmlns="http://www.w3.org/2000/svg">
<g filter="url(#filter0_d_39_386)">
<path d="M94 83H16.5L25 159L56 168L83 159L94 83Z" fill="white"/>
<path d="M10 75.5852L18.1797 167.467L54.8828 179.585L91.8203 167.467L100 75.5852H10ZM82.2344 105.276H39.1562L40.1172 116.744H81.2734L78.0859 151.194L55.1406 157.462V157.532H54.8828L31.75 151.194L30.3438 133.598H41.5234L42.3438 142.442L54.8828 145.808L67.4688 142.442L68.875 128.003H29.7578L26.7578 94.2031H83.2656L82.2344 105.276Z" fill="#FF5723"/>
</g>
<g filter="url(#filter1_d_39_386)">
<path d="M93.5 229.585H16L24.5 305.585L55.5 314.585L82.5 305.585L93.5 229.585Z" fill="white"/>
<path d="M10 219.585L18.1797 312.2L55 324.415L91.8203 312.2L100 219.585H10ZM83.3828 238.305L82.2578 249.373L55.2344 260.909L55.1641 260.932H81.2969L78.2969 295.236L55.2812 301.951L32.125 295.119L30.625 277.826H42.0859L42.8359 286.788L55.1641 289.901L67.9844 286.297L68.8516 271.883L29.875 271.766V271.743L29.8281 271.766L28.9844 260.932L55.2578 250.004L56.7812 249.373H27.9766L26.6172 238.305H83.3828Z" fill="#2865F1"/>
</g>
<g filter="url(#filter2_d_39_386)">
<rect x="10" y="364.415" width="90" height="90" fill="#1D1D1F"/>
<path d="M10 364.415V454.415H100V364.415H10ZM58.9777 434.607C58.9777 443.366 53.8348 447.363 46.3415 447.363C39.5714 447.363 35.654 443.868 33.6451 439.629L40.5357 435.471C41.8616 437.821 43.067 439.81 45.9799 439.81C48.7522 439.81 50.5201 438.725 50.5201 434.486V405.738H58.9777V434.607ZM78.9866 447.363C71.1317 447.363 66.0491 443.627 63.5781 438.725L70.4687 434.747C72.2768 437.701 74.6473 439.89 78.8058 439.89C82.3013 439.89 84.5513 438.142 84.5513 435.712C84.5513 432.819 82.2612 431.794 78.3839 430.087L76.2746 429.183C70.1674 426.591 66.1295 423.317 66.1295 416.426C66.1295 410.078 70.971 405.256 78.5045 405.256C83.8884 405.256 87.7455 407.125 90.5179 412.026L83.9286 416.245C82.4821 413.654 80.9152 412.629 78.4844 412.629C76.0134 412.629 74.4464 414.196 74.4464 416.245C74.4464 418.776 76.0134 419.801 79.6496 421.388L81.7589 422.292C88.9509 425.366 92.9888 428.52 92.9888 435.591C92.9888 443.185 87.0022 447.363 78.9866 447.363Z" fill="#F8E016"/>
</g>
<defs>
<filter id="filter0_d_39_386" x="0" y="70.5852" width="110" height="124" filterUnits="userSpaceOnUse" color-interpolation-filters="sRGB">
<feFlood flood-opacity="0" result="BackgroundImageFix"/>
<feColorMatrix in="SourceAlpha" type="matrix" values="0 0 0 0 0 0 0 0 0 0 0 0 0 0 0 0 0 0 127 0" result="hardAlpha"/>
<feOffset dy="5"/>
<feGaussianBlur stdDeviation="5"/>
<feComposite in2="hardAlpha" operator="out"/>
<feColorMatrix type="matrix" values="0 0 0 0 0 0 0 0 0 0 0 0 0 0 0 0 0 0 0.4 0"/>
<feBlend mode="normal" in2="BackgroundImageFix" result="effect1_dropShadow_39_386"/>
<feBlend mode="normal" in="SourceGraphic" in2="effect1_dropShadow_39_386" result="shape"/>
</filter>
<filter id="filter1_d_39_386" x="0" y="214.585" width="110" height="124.83" filterUnits="userSpaceOnUse" color-interpolation-filters="sRGB">
<feFlood flood-opacity="0" result="BackgroundImageFix"/>
<feColorMatrix in="SourceAlpha" type="matrix" values="0 0 0 0 0 0 0 0 0 0 0 0 0 0 0 0 0 0 127 0" result="hardAlpha"/>
<feOffset dy="5"/>
<feGaussianBlur stdDeviation="5"/>
<feComposite in2="hardAlpha" operator="out"/>
<feColorMatrix type="matrix" values="0 0 0 0 0 0 0 0 0 0 0 0 0 0 0 0 0 0 0.4 0"/>
<feBlend mode="normal" in2="BackgroundImageFix" result="effect1_dropShadow_39_386"/>
<feBlend mode="normal" in="SourceGraphic" in2="effect1_dropShadow_39_386" result="shape"/>
</filter>
<filter id="filter2_d_39_386" x="0" y="359.415" width="110" height="110" filterUnits="userSpaceOnUse" color-interpolation-filters="sRGB">
<feFlood flood-opacity="0" result="BackgroundImageFix"/>
<feColorMatrix in="SourceAlpha" type="matrix" values="0 0 0 0 0 0 0 0 0 0 0 0 0 0 0 0 0 0 127 0" result="hardAlpha"/>
<feOffset dy="5"/>
<feGaussianBlur stdDeviation="5"/>
<feComposite in2="hardAlpha" operator="out"/>
<feColorMatrix type="matrix" values="0 0 0 0 0 0 0 0 0 0 0 0 0 0 0 0 0 0 0.4 0"/>
<feBlend mode="normal" in2="BackgroundImageFix" result="effect1_dropShadow_39_386"/>
<feBlend mode="normal" in="SourceGraphic" in2="effect1_dropShadow_39_386" result="shape"/>
</filter>
</defs>
</svg>
