<svg viewBox="0 0 233.30078125 159.98291015625" version="1.1" xmlns="http://www.w3.org/2000/svg"><g transform="matrix(1 0 0 1 36.548754882812545 115.221435546875)"><path d="M 40.4297 0.0488281 L 41.9434 -0.195312 L 41.9434 2.34375 C 41.9434 12.8418 47.4121 18.2617 58.0078 18.2617 L 131.641 18.2617 C 142.188 18.2617 147.754 12.793 147.754 2.34375 L 147.754 -49.707 C 147.754 -60.1562 142.188 -65.625 131.641 -65.625 L 119.922 -65.625 L 117.041 -82.0801 C 115.234 -92.3828 108.789 -96.8262 98.4375 -94.9707 L 25.9277 -82.1777 C 15.4785 -80.3223 11.0352 -74.0234 12.8418 -63.6719 L 21.8262 -12.8418 C 23.6328 -2.49023 29.9805 1.9043 40.4297 0.0488281 Z M 31.25 -15.3809 L 22.6074 -64.502 C 21.7773 -69.1895 23.7793 -71.9238 28.2227 -72.7051 L 99.5117 -85.3027 C 103.906 -86.0352 106.787 -84.1309 107.617 -79.4922 L 110.059 -65.625 L 58.0078 -65.625 C 47.4121 -65.625 41.9434 -60.1562 41.9434 -49.707 L 41.9434 -10.1074 L 39.3555 -9.61914 C 34.9121 -8.83789 32.0801 -10.7422 31.25 -15.3809 Z M 51.6602 -48.8281 C 51.6602 -53.5645 54.1504 -55.8594 58.6426 -55.8594 L 131.006 -55.8594 C 135.498 -55.8594 137.988 -53.5645 137.988 -48.8281 L 137.988 -7.76367 L 119.189 -25.3906 C 117.139 -27.2949 114.648 -28.2715 112.109 -28.2715 C 109.473 -28.2715 107.178 -27.3438 104.98 -25.4395 L 83.6426 -6.54297 L 75.0977 -14.2578 C 73.0957 -16.0156 70.9473 -16.9434 68.7012 -16.9434 C 66.5527 -16.9434 64.5508 -16.0645 62.5488 -14.3066 L 51.6602 -4.73633 Z M 76.5625 -23.9258 C 82.8125 -23.9258 87.9395 -29.1016 87.9395 -35.3027 C 87.9395 -41.5039 82.8125 -46.7285 76.5625 -46.7285 C 70.3613 -46.7285 65.1855 -41.5039 65.1855 -35.3027 C 65.1855 -29.1016 70.3613 -23.9258 76.5625 -23.9258 Z"/></g></svg>