<svg width="175" height="176" viewBox="0 0 175 176" fill="none" xmlns="http://www.w3.org/2000/svg">
<path fill-rule="evenodd" clip-rule="evenodd" d="M42.5676 88.0002C42.5676 63.1844 62.6844 43.0676 87.5002 43.0676C112.316 43.0676 132.432 63.1844 132.432 88.0002C132.432 112.816 112.316 132.932 87.5002 132.932C62.6844 132.932 42.5676 112.816 42.5676 88.0002ZM87.5002 117.167C71.3916 117.167 58.3333 104.108 58.3333 88.0002C58.3333 71.8916 71.3916 58.8333 87.5002 58.8333C103.608 58.8333 116.667 71.8916 116.667 88.0002C116.667 104.108 103.608 117.167 87.5002 117.167Z" fill="url(#paint0_linear_48_56)"/>
<path fill-rule="evenodd" clip-rule="evenodd" d="M42.5676 88.0002C42.5676 63.1844 62.6844 43.0676 87.5002 43.0676C112.316 43.0676 132.432 63.1844 132.432 88.0002C132.432 112.816 112.316 132.932 87.5002 132.932C62.6844 132.932 42.5676 112.816 42.5676 88.0002ZM87.5002 117.167C71.3916 117.167 58.3333 104.108 58.3333 88.0002C58.3333 71.8916 71.3916 58.8333 87.5002 58.8333C103.608 58.8333 116.667 71.8916 116.667 88.0002C116.667 104.108 103.608 117.167 87.5002 117.167Z" fill="url(#paint1_radial_48_56)"/>
<path d="M134.208 51.7922C140.007 51.7922 144.708 47.0914 144.708 41.2924C144.708 35.4933 140.007 30.7922 134.208 30.7922C128.409 30.7922 123.708 35.4933 123.708 41.2924C123.708 47.0914 128.409 51.7922 134.208 51.7922Z" fill="url(#paint2_linear_48_56)"/>
<path d="M134.208 51.7922C140.007 51.7922 144.708 47.0914 144.708 41.2924C144.708 35.4933 140.007 30.7922 134.208 30.7922C128.409 30.7922 123.708 35.4933 123.708 41.2924C123.708 47.0914 128.409 51.7922 134.208 51.7922Z" fill="url(#paint3_radial_48_56)"/>
<path fill-rule="evenodd" clip-rule="evenodd" d="M87.5002 0.5C63.7364 0.5 60.7567 0.600726 51.4239 1.02656C42.1105 1.45134 35.7498 2.93063 30.1842 5.09381C24.4303 7.32959 19.5506 10.3215 14.6859 15.1859C9.8215 20.0506 6.82959 24.9303 4.59381 30.6842C2.43063 36.2498 0.951342 42.6105 0.526555 51.9239C0.100726 61.2567 0 64.2364 0 88.0002C0 111.764 0.100726 114.743 0.526555 124.076C0.951342 133.389 2.43063 139.75 4.59381 145.316C6.82959 151.07 9.8215 155.949 14.6859 160.814C19.5506 165.678 24.4303 168.67 30.1842 170.907C35.7498 173.069 42.1105 174.549 51.4239 174.973C60.7567 175.399 63.7364 175.5 87.5002 175.5C111.264 175.5 114.243 175.399 123.576 174.973C132.889 174.549 139.25 173.069 144.816 170.907C150.57 168.67 155.449 165.678 160.314 160.814C165.178 155.949 168.17 151.07 170.407 145.316C172.569 139.75 174.049 133.389 174.473 124.076C174.899 114.743 175 111.764 175 88.0002C175 64.2364 174.899 61.2567 174.473 51.9239C174.049 42.6105 172.569 36.2498 170.407 30.6842C168.17 24.9303 165.178 20.0506 160.314 15.1859C155.449 10.3215 150.57 7.32959 144.816 5.09381C139.25 2.93063 132.889 1.45134 123.576 1.02656C114.243 0.600726 111.264 0.5 87.5002 0.5ZM87.5002 16.2657C110.863 16.2657 113.631 16.355 122.858 16.776C131.389 17.165 136.022 18.5904 139.105 19.7887C143.189 21.376 146.104 23.2721 149.166 26.3342C152.228 29.3959 154.124 32.3107 155.711 36.395C156.91 39.4783 158.335 44.1113 158.724 52.6425C159.145 61.869 159.234 64.6366 159.234 88.0002C159.234 111.363 159.145 114.131 158.724 123.358C158.335 131.889 156.91 136.522 155.711 139.605C154.124 143.689 152.228 146.604 149.166 149.666C146.104 152.728 143.189 154.624 139.105 156.211C136.022 157.41 131.389 158.835 122.858 159.224C113.632 159.645 110.865 159.734 87.5002 159.734C64.1348 159.734 61.368 159.645 52.1425 159.224C43.6113 158.835 38.9783 157.41 35.895 156.211C31.8107 154.624 28.8959 152.728 25.8342 149.666C22.7725 146.604 20.8761 143.689 19.2887 139.605C18.0904 136.522 16.665 131.889 16.276 123.358C15.855 114.131 15.7658 111.363 15.7658 88.0002C15.7658 64.6366 15.855 61.869 16.276 52.6425C16.665 44.1113 18.0904 39.4783 19.2887 36.395C20.8761 32.3107 22.7721 29.3959 25.8342 26.3342C28.8959 23.2721 31.8107 21.376 35.895 19.7887C38.9783 18.5904 43.6113 17.165 52.1425 16.776C61.369 16.355 64.1366 16.2657 87.5002 16.2657Z" fill="url(#paint4_linear_48_56)"/>
<path fill-rule="evenodd" clip-rule="evenodd" d="M87.5002 0.5C63.7364 0.5 60.7567 0.600726 51.4239 1.02656C42.1105 1.45134 35.7498 2.93063 30.1842 5.09381C24.4303 7.32959 19.5506 10.3215 14.6859 15.1859C9.8215 20.0506 6.82959 24.9303 4.59381 30.6842C2.43063 36.2498 0.951342 42.6105 0.526555 51.9239C0.100726 61.2567 0 64.2364 0 88.0002C0 111.764 0.100726 114.743 0.526555 124.076C0.951342 133.389 2.43063 139.75 4.59381 145.316C6.82959 151.07 9.8215 155.949 14.6859 160.814C19.5506 165.678 24.4303 168.67 30.1842 170.907C35.7498 173.069 42.1105 174.549 51.4239 174.973C60.7567 175.399 63.7364 175.5 87.5002 175.5C111.264 175.5 114.243 175.399 123.576 174.973C132.889 174.549 139.25 173.069 144.816 170.907C150.57 168.67 155.449 165.678 160.314 160.814C165.178 155.949 168.17 151.07 170.407 145.316C172.569 139.75 174.049 133.389 174.473 124.076C174.899 114.743 175 111.764 175 88.0002C175 64.2364 174.899 61.2567 174.473 51.9239C174.049 42.6105 172.569 36.2498 170.407 30.6842C168.17 24.9303 165.178 20.0506 160.314 15.1859C155.449 10.3215 150.57 7.32959 144.816 5.09381C139.25 2.93063 132.889 1.45134 123.576 1.02656C114.243 0.600726 111.264 0.5 87.5002 0.5ZM87.5002 16.2657C110.863 16.2657 113.631 16.355 122.858 16.776C131.389 17.165 136.022 18.5904 139.105 19.7887C143.189 21.376 146.104 23.2721 149.166 26.3342C152.228 29.3959 154.124 32.3107 155.711 36.395C156.91 39.4783 158.335 44.1113 158.724 52.6425C159.145 61.869 159.234 64.6366 159.234 88.0002C159.234 111.363 159.145 114.131 158.724 123.358C158.335 131.889 156.91 136.522 155.711 139.605C154.124 143.689 152.228 146.604 149.166 149.666C146.104 152.728 143.189 154.624 139.105 156.211C136.022 157.41 131.389 158.835 122.858 159.224C113.632 159.645 110.865 159.734 87.5002 159.734C64.1348 159.734 61.368 159.645 52.1425 159.224C43.6113 158.835 38.9783 157.41 35.895 156.211C31.8107 154.624 28.8959 152.728 25.8342 149.666C22.7725 146.604 20.8761 143.689 19.2887 139.605C18.0904 136.522 16.665 131.889 16.276 123.358C15.855 114.131 15.7658 111.363 15.7658 88.0002C15.7658 64.6366 15.855 61.869 16.276 52.6425C16.665 44.1113 18.0904 39.4783 19.2887 36.395C20.8761 32.3107 22.7721 29.3959 25.8342 26.3342C28.8959 23.2721 31.8107 21.376 35.895 19.7887C38.9783 18.5904 43.6113 17.165 52.1425 16.776C61.369 16.355 64.1366 16.2657 87.5002 16.2657Z" fill="url(#paint5_radial_48_56)"/>
<defs>
<linearGradient id="paint0_linear_48_56" x1="10.2107" y1="9.70026" x2="65.3867" y2="223.128" gradientUnits="userSpaceOnUse">
<stop stop-color="#4E60D3"/>
<stop offset="0.142763" stop-color="#913BAF"/>
<stop offset="0.761458" stop-color="#D52D88"/>
<stop offset="1" stop-color="#F26D4F"/>
</linearGradient>
<radialGradient id="paint1_radial_48_56" cx="0" cy="0" r="1" gradientUnits="userSpaceOnUse" gradientTransform="translate(52.9801 175.5) rotate(32.1601) scale(163.441 117.623)">
<stop stop-color="#FED276"/>
<stop offset="0.17024" stop-color="#FDBD61" stop-opacity="0.975006"/>
<stop offset="0.454081" stop-color="#F6804D"/>
<stop offset="1" stop-color="#E83D5C" stop-opacity="0.01"/>
</radialGradient>
<linearGradient id="paint2_linear_48_56" x1="10.2107" y1="9.70026" x2="65.3867" y2="223.128" gradientUnits="userSpaceOnUse">
<stop stop-color="#4E60D3"/>
<stop offset="0.142763" stop-color="#913BAF"/>
<stop offset="0.761458" stop-color="#D52D88"/>
<stop offset="1" stop-color="#F26D4F"/>
</linearGradient>
<radialGradient id="paint3_radial_48_56" cx="0" cy="0" r="1" gradientUnits="userSpaceOnUse" gradientTransform="translate(52.9801 175.5) rotate(32.1601) scale(163.441 117.623)">
<stop stop-color="#FED276"/>
<stop offset="0.17024" stop-color="#FDBD61" stop-opacity="0.975006"/>
<stop offset="0.454081" stop-color="#F6804D"/>
<stop offset="1" stop-color="#E83D5C" stop-opacity="0.01"/>
</radialGradient>
<linearGradient id="paint4_linear_48_56" x1="10.2107" y1="9.70026" x2="65.3867" y2="223.128" gradientUnits="userSpaceOnUse">
<stop stop-color="#4E60D3"/>
<stop offset="0.142763" stop-color="#913BAF"/>
<stop offset="0.761458" stop-color="#D52D88"/>
<stop offset="1" stop-color="#F26D4F"/>
</linearGradient>
<radialGradient id="paint5_radial_48_56" cx="0" cy="0" r="1" gradientUnits="userSpaceOnUse" gradientTransform="translate(52.9801 175.5) rotate(32.1601) scale(163.441 117.623)">
<stop stop-color="#FED276"/>
<stop offset="0.17024" stop-color="#FDBD61" stop-opacity="0.975006"/>
<stop offset="0.454081" stop-color="#F6804D"/>
<stop offset="1" stop-color="#E83D5C" stop-opacity="0.01"/>
</radialGradient>
</defs>
</svg>
