<svg width="91" height="91" viewBox="0 0 91 91" fill="none" xmlns="http://www.w3.org/2000/svg">
<rect x="0.5" y="0.414795" width="90" height="90" fill="#1D1D1F"/>
<path d="M0.5 0.414795V90.4148H90.5V0.414795H0.5ZM49.4777 70.6068C49.4777 79.3657 44.3348 83.3635 36.8415 83.3635C30.0714 83.3635 26.154 79.8679 24.1451 75.6291L31.0357 71.4706C32.3616 73.821 33.567 75.8099 36.4799 75.8099C39.2522 75.8099 41.0201 74.7251 41.0201 70.4862V41.7385H49.4777V70.6068V70.6068ZM69.4866 83.3635C61.6317 83.3635 56.5491 79.6268 54.0781 74.7251L60.9687 70.7474C62.7768 73.7005 65.1473 75.8902 69.3058 75.8902C72.8013 75.8902 75.0513 74.1425 75.0513 71.7117C75.0513 68.8188 72.7612 67.7943 68.8839 66.0867L66.7746 65.1826C60.6674 62.5911 56.6295 59.3166 56.6295 52.426C56.6295 46.0777 61.471 41.2563 69.0045 41.2563C74.3884 41.2563 78.2455 43.1246 81.0179 48.0264L74.4286 52.2452C72.9821 49.6536 71.4152 48.6291 68.9844 48.6291C66.5134 48.6291 64.9464 50.196 64.9464 52.2452C64.9464 54.7764 66.5134 55.801 70.1496 57.388L72.2589 58.292C79.4509 61.3657 83.4888 64.5197 83.4888 71.5911C83.4888 79.1849 77.5022 83.3635 69.4866 83.3635V83.3635Z" fill="#F8E016"/>
</svg>
