<svg width="168" height="176" viewBox="0 0 168 176" fill="none" xmlns="http://www.w3.org/2000/svg">
<path fill-rule="evenodd" clip-rule="evenodd" d="M107.814 0.897836L10.9006 8.04942C3.08332 8.72608 0.362732 13.8302 0.362732 19.9493V126.103C0.362732 130.869 2.0558 134.946 6.14252 140.395L28.9231 169.993C32.6653 174.758 36.069 175.779 43.2149 175.441L155.757 168.633C165.274 167.957 168 163.529 168 156.045V36.6208C168 32.7533 166.47 31.6391 161.969 28.3375C161.71 28.1511 161.451 27.9644 161.193 27.7775L130.262 6.00194C122.778 0.56534 119.718 -0.122986 107.814 0.897836ZM45.7603 34.6666C36.5711 35.2849 34.4868 35.4249 29.2675 31.1842L15.9974 20.6376C14.6487 19.2726 15.326 17.5693 18.7238 17.231L111.889 10.4294C119.712 9.7469 123.788 12.471 126.847 14.851L142.826 26.4184C143.509 26.7625 145.208 28.7983 143.164 28.7983L46.9513 34.5849L45.7603 34.6666ZM35.0473 155.024V53.6422C35.0473 49.2148 36.4076 47.1731 40.4826 46.829L150.988 40.3657C154.736 40.0274 156.429 42.4074 156.429 46.829V147.534C156.429 151.962 155.746 155.707 149.627 156.045L43.8805 162.17C37.7621 162.508 35.0473 160.473 35.0473 155.024ZM139.434 59.0788C140.111 62.1413 139.434 65.2038 136.369 65.5538L131.272 66.5629V141.415C126.847 143.795 122.772 145.154 119.368 145.154C113.927 145.154 112.567 143.451 108.491 138.353L75.1614 85.9585V136.65L85.7051 139.035C85.7051 139.035 85.7051 145.16 77.1989 145.16L53.747 146.519C53.0639 145.154 53.747 141.754 56.1231 141.077L62.2473 139.38V72.3553L53.747 71.667C53.0639 68.6046 54.7628 64.1829 59.5268 63.8388L84.6893 62.1471L119.368 115.218V68.2662L110.529 67.2512C109.846 63.5004 112.567 60.7763 115.964 60.4438L139.434 59.0788Z" fill="black"/>
</svg>
