<svg width="130" height="127" viewBox="0 0 130 127" fill="none" xmlns="http://www.w3.org/2000/svg">
<path d="M23.0208 0H106.979C119.708 0 130 10.312 130 23.0662V103.934C130 116.688 119.708 127 106.979 127H23.0208C10.2917 127 0 116.688 0 103.934V23.0662C0 10.312 10.2917 0 23.0208 0Z" fill="#00005B"/>
<path d="M30.875 89.0628V33.2154C30.875 32.8355 31.0375 32.6184 31.4167 32.6184C32.3375 32.6184 33.2042 32.6184 34.45 32.5641C35.75 32.5098 37.1042 32.5098 38.5667 32.4555C40.0292 32.4013 41.6 32.4013 43.2792 32.347C44.9583 32.2927 46.5833 32.2927 48.2083 32.2927C52.65 32.2927 56.3333 32.8355 59.3667 33.9752C62.075 34.8979 64.5667 36.4175 66.625 38.4256C68.3583 40.1624 69.7125 42.279 70.5792 44.6128C71.3917 46.8923 71.825 49.2261 71.825 51.6684C71.825 56.3359 70.7417 60.1893 68.575 63.2286C66.4083 66.2679 63.375 68.5474 59.8542 69.85C56.1708 71.2068 52.1083 71.6953 47.6667 71.6953C46.3667 71.6953 45.5 71.6953 44.9583 71.641C44.4167 71.5867 43.6583 71.5867 42.6292 71.5867V89.0085C42.6833 89.3885 42.4125 89.7141 42.0333 89.7684C41.9792 89.7684 41.925 89.7684 41.8167 89.7684H31.525C31.0917 89.7684 30.875 89.5513 30.875 89.0628ZM42.6833 43.0932V61.3291C43.4417 61.3833 44.1458 61.4376 44.7958 61.4376H47.6667C49.7792 61.4376 51.8917 61.112 53.8958 60.4607C55.6292 59.9722 57.1458 58.941 58.3375 57.5842C59.475 56.2273 60.0167 54.382 60.0167 51.994C60.0708 50.3115 59.6375 48.629 58.7708 47.1637C57.85 45.7526 56.55 44.6671 54.9792 44.0701C52.975 43.256 50.8083 42.9303 48.5875 42.9846C47.1792 42.9846 45.9333 42.9846 44.9042 43.0389C43.8208 42.9846 43.0625 43.0389 42.6833 43.0932Z" fill="#9999FF"/>
<path d="M79.4083 46.2411H88.8875C89.4291 46.2411 89.8625 46.621 90.025 47.1095C90.1875 47.5437 90.2958 47.9778 90.35 48.4663C90.4583 49.009 90.5666 49.606 90.6208 50.1488C90.675 50.7458 90.7291 51.3971 90.7291 52.1026C92.3541 50.2031 94.3041 48.6291 96.525 47.4351C99.0166 46.024 101.887 45.3184 104.758 45.3184C105.137 45.2642 105.462 45.5355 105.517 45.9154C105.517 45.9697 105.517 46.024 105.517 46.1325V56.7159C105.517 57.1501 105.246 57.3129 104.65 57.3129C102.7 57.2586 100.696 57.4214 98.8 57.8556C97.2291 58.1813 95.7125 58.6697 94.25 59.321C93.2208 59.8095 92.2458 60.4607 91.4875 61.3291V89.0086C91.4875 89.5513 91.2708 89.7684 90.7833 89.7684H80.1125C79.6791 89.8227 79.3 89.5513 79.2458 89.1171C79.2458 89.0629 79.2458 88.9543 79.2458 88.9001V58.8325C79.2458 57.53 79.2458 56.1731 79.1916 54.762C79.1375 53.3509 79.1375 51.9398 79.0833 50.5287C79.0833 49.2804 78.975 48.0864 78.8666 46.8381C78.8125 46.5667 78.975 46.2954 79.2458 46.2411C79.2458 46.1868 79.3541 46.1868 79.4083 46.2411Z" fill="#9999FF"/>
</svg>
