<svg width="130" height="127" viewBox="0 0 130 127" fill="none" xmlns="http://www.w3.org/2000/svg">
<path d="M106.979 0H23.0208C10.3068 0 0 10.3271 0 23.0662V103.934C0 116.673 10.3068 127 23.0208 127H106.979C119.693 127 130 116.673 130 103.934V23.0662C130 10.3271 119.693 0 106.979 0Z" fill="#001E36"/>
<path d="M29.2726 89.0602V33.2242C29.2726 32.8173 29.4471 32.6126 29.796 32.6126C30.7251 32.6126 31.5735 32.5989 32.8531 32.5688C34.1314 32.5402 35.5121 32.5111 36.9955 32.4815C38.4782 32.4528 40.048 32.4236 41.7049 32.3941C43.3616 32.3654 45.004 32.3509 46.632 32.3503C51.0497 32.3503 54.7706 32.9038 57.7946 34.0106C60.5224 34.9352 63.0102 36.4575 65.0767 38.467C66.8284 40.2087 68.1822 42.3105 69.0445 44.6273C69.8604 46.8821 70.2738 49.2631 70.2657 51.6614C70.2657 56.3226 69.1901 60.1674 67.0389 63.1956C64.8736 66.2364 61.8298 68.5389 58.3181 69.7929C54.6552 71.1623 50.585 71.6267 46.1089 71.6267C44.8293 71.6267 43.9281 71.6121 43.4053 71.583C42.8822 71.5542 42.0974 71.5397 41.0509 71.5393V88.9729C41.0661 89.0797 41.0563 89.1886 41.0222 89.291C40.9881 89.3934 40.9307 89.4864 40.8546 89.5627C40.7784 89.639 40.6856 89.6965 40.5834 89.7306C40.4812 89.7648 40.3725 89.7746 40.2659 89.7593H29.883C29.4757 89.7593 29.2726 89.5272 29.2726 89.0602ZM41.0508 43.0982V61.3096C41.8057 61.3683 42.5033 61.3974 43.1437 61.3969H46.0216C48.1391 61.3899 50.2426 61.0534 52.2571 60.3996C53.9848 59.8854 55.5286 58.8844 56.7047 57.516C57.8383 56.1767 58.4052 54.3125 58.4053 51.9237C58.4513 50.2334 58.0123 48.5654 57.1405 47.1176C56.2241 45.7177 54.8995 44.6347 53.347 44.0157C51.3199 43.2262 49.1546 42.8547 46.9809 42.9235C45.5854 42.9235 44.35 42.938 43.2746 42.9671C42.1982 42.9972 41.4569 43.0409 41.0508 43.0981V43.0982Z" fill="#31A8FF"/>
<path d="M103.984 57.9984C102.345 57.1546 100.6 56.5373 98.7954 56.1633C96.8071 55.7062 94.7744 55.4718 92.7345 55.4642C91.631 55.4342 90.5291 55.5668 89.4641 55.8575C88.7862 56.0088 88.1837 56.3957 87.7635 56.9497C87.4792 57.3929 87.328 57.9085 87.3276 58.4352C87.3435 58.9463 87.5274 59.4377 87.8507 59.8333C88.3601 60.4303 88.9826 60.9203 89.682 61.275C90.9255 61.9459 92.2067 62.5441 93.5192 63.0664C96.4461 64.048 99.2428 65.3831 101.848 67.0421C103.622 68.1643 105.09 69.7107 106.121 71.5422C106.987 73.2766 107.421 75.1955 107.385 77.1346C107.438 79.6952 106.707 82.2105 105.293 84.3435C103.778 86.5087 101.674 88.192 99.2313 89.193C96.5851 90.3577 93.3149 90.9403 89.4205 90.9407C86.9465 90.9658 84.4767 90.7315 82.0514 90.2416C80.1405 89.8906 78.2804 89.3036 76.5136 88.494C76.3229 88.3954 76.1643 88.2444 76.0561 88.0587C75.948 87.873 75.895 87.6602 75.9031 87.4454V78.0084C75.8926 77.916 75.9074 77.8225 75.9458 77.7378C75.9843 77.6532 76.0449 77.5806 76.1213 77.5278C76.1962 77.4854 76.2822 77.4668 76.3679 77.4746C76.4536 77.4824 76.5348 77.5162 76.6008 77.5715C78.6873 78.8042 80.9529 79.7034 83.3159 80.2366C85.3986 80.7596 87.5351 81.0382 89.6821 81.0667C91.7165 81.0667 93.2136 80.8046 94.1733 80.2803C94.6067 80.0815 94.9733 79.7611 95.2287 79.3579C95.4841 78.9547 95.6173 78.4859 95.6123 78.0084C95.6123 77.252 95.1763 76.5239 94.3042 75.8239C93.4322 75.1248 91.6589 74.2801 88.9844 73.2898C86.2461 72.3349 83.6498 71.0121 81.2664 69.3577C79.5617 68.1698 78.1581 66.5988 77.1677 64.7702C76.31 63.0484 75.8764 61.1458 75.9032 59.2216C75.8983 56.9096 76.5321 54.6414 77.7345 52.6681C79.1054 50.4951 81.074 48.7654 83.4032 47.6874C85.9608 46.4068 89.1584 45.766 92.9961 45.765C95.2436 45.7469 97.489 45.9076 99.7111 46.2456C101.32 46.4501 102.893 46.8765 104.386 47.5126C104.504 47.5467 104.613 47.6078 104.704 47.6912C104.795 47.7746 104.865 47.878 104.909 47.9932C104.968 48.2066 104.998 48.4272 104.997 48.6486V57.474C105.003 57.5767 104.982 57.6792 104.936 57.7712C104.89 57.8632 104.821 57.9415 104.735 57.9983C104.618 58.0564 104.49 58.0867 104.36 58.0867C104.229 58.0867 104.101 58.0564 103.984 57.9984Z" fill="#31A8FF"/>
</svg>
