<svg width="219" height="108" viewBox="0 0 219 108" fill="none" xmlns="http://www.w3.org/2000/svg">
<g filter="url(#filter0_d_169_43)">
<rect x="15" y="5" width="189" height="78" rx="28" fill="#335EF7" shape-rendering="crispEdges"/>
<path d="M93.167 62.6104C103.641 62.6104 110.159 55.6035 110.159 44.3975V44.3486C110.159 33.167 103.616 26.1602 93.167 26.1602C82.7422 26.1602 76.1748 33.1426 76.1748 44.3486V44.3975C76.1748 55.6035 82.6934 62.6104 93.167 62.6104ZM93.167 56.3604C87.3809 56.3604 83.6943 51.7705 83.6943 44.3975V44.3486C83.6943 36.9756 87.4053 32.4102 93.167 32.4102C98.9531 32.4102 102.64 37 102.64 44.3486V44.3975C102.64 51.6973 99.0264 56.3604 93.167 56.3604ZM114.92 62H122.293V51.209L125.589 47.1318L135.672 62H144.485L130.96 42.3223L143.582 26.7705H135.379L122.464 42.8838H122.293V26.7705H114.92V62Z" fill="white"/>
<rect x="15.5" y="5.5" width="188" height="77" rx="27.5" stroke="#2354FF" shape-rendering="crispEdges"/>
</g>
<defs>
<filter id="filter0_d_169_43" x="0" y="0" width="219" height="108" filterUnits="userSpaceOnUse" color-interpolation-filters="sRGB">
<feFlood flood-opacity="0" result="BackgroundImageFix"/>
<feColorMatrix in="SourceAlpha" type="matrix" values="0 0 0 0 0 0 0 0 0 0 0 0 0 0 0 0 0 0 127 0" result="hardAlpha"/>
<feOffset dy="10"/>
<feGaussianBlur stdDeviation="7.5"/>
<feComposite in2="hardAlpha" operator="out"/>
<feColorMatrix type="matrix" values="0 0 0 0 0 0 0 0 0 0.219388 0 0 0 0 1 0 0 0 0.1 0"/>
<feBlend mode="normal" in2="BackgroundImageFix" result="effect1_dropShadow_169_43"/>
<feBlend mode="normal" in="SourceGraphic" in2="effect1_dropShadow_169_43" result="shape"/>
</filter>
</defs>
</svg>
